) (`-.                           (` .-') /`           ) (`-.
       ( OO ).                          `.( OO ),'            ( OO ).
      (_/.  _)-.-'),-----. ,--.     ,--./  .--.  .-'),-----.(_/.  _)-.
         `.'  ( OO'  .-.  '|  |.-') |      |  | ( OO'  .-.  '  `.'  /
             /Y   |  | |  ||  | OO )|  |   |  |,/   |  | |  |      /
             _) |  ||  ||  |`-' ||  |.'.|  |_)_) |  ||  |      |
        .'    _) |  | |  (|  '---.'|         |    |  | |  | .'    _)
       /  .'.    `'  '-'  '|      | |   ,'.   |    `'  '-'  '/  .'.  
      '--'   '--'   `-----' `------' '--'   '--'      `-----''--'   '--'


      ßßßßßßßßßßßßßßßßßßßßßßßßßßßßßßßßßßßßßßßßßßßßßßßßßßßßßßßßßßßßßßßßßßßßßß

                   Û°°°°°°°°°°°°°°°°°°°°°°°°°°°°°°°°°°°Û
                  ÛÛ The Ugly Truth[2009]-WP-DvDScR-LW ÛÛ
                   Û°°°°°°°°°°°°°°°°°°°°°°°°°°°°°°°°°°°Û

File Name    : The Ugly Truth[2009]-WP-DvDScR-LW
Type         : Movie
Format       : MP4
File Size    : 1.07 GB
Duration     : 01:35:55
Language     : English
Source       : DvD
Subtitles    : None
Genre        : Comedy | Romance 
IMDB Link    : http://www.imdb.com/title/tt1142988/
IMDB Rating  : 6.6/10
IMDB Votes   : 6,866 Votes
     ÜÜÜÜÜÜÜÜÜÜÜÜÜÜÜÜÜÜÜÜÜÜÜÜÜÜÜÜÜÜÜÜÜÜÜÜÜÜÜÜÜÜÜÜÜÜÜÜÜÜÜÜÜÜÜÜÜÜÜÜÜÜÜÜÜÜÜÜÜÜ
 
                        Û°°°°°°°°°°°°°°°°°°°°°°°°Û
                       ÛÛ       Video Info       ÛÛ
                        Û°°°°°°°°°°°°°°°°°°°°°°°°Û

Format                           : MPEG-4 Visual
Format profile                   : Simple@L3
Format settings, BVOP            : No
Format settings, QPel            : No
Format settings, GMC             : No warppoints
Format settings, Matrix          : Default (H.263)
Codec ID                         : 20
Duration                         : 1h 35mn
Bit rate mode                    : Constant
Bit rate                         : 1 500 Kbps
Width                            : 688 pixels
Height                           : 368 pixels
Display aspect ratio             : 1.870
Frame rate mode                  : Constant
Frame rate                       : 29.970 fps
Resolution                       : 24 bits
Colorimetry                      : 4:2:0
Scan type                        : Progressive
Bits/(Pixel*Frame)               : 0.198
Stream size                      : 1.00 GiB (94%)
     ÜÜÜÜÜÜÜÜÜÜÜÜÜÜÜÜÜÜÜÜÜÜÜÜÜÜÜÜÜÜÜÜÜÜÜÜÜÜÜÜÜÜÜÜÜÜÜÜÜÜÜÜÜÜÜÜÜÜÜÜÜÜÜÜÜÜÜÜÜÜ

                         Û°°°°°°°°°°°°°°°°°°°°°°°°Û
                        ÛÛ      Sound Info        ÛÛ
                         Û°°°°°°°°°°°°°°°°°°°°°°°°Û

Format                           : AAC
Format/Info                      : Advanced Audio Codec
Format version                   : Version 4
Format profile                   : LC
Format settings, SBR             : No
Codec ID                         : 40
Duration                         : 1h 35mn
Bit rate mode                    : Constant
Bit rate                         : 96.0 Kbps
Nominal bit rate                 : 48.0 Kbps
Channel(s)                       : 2 channels
Channel positions                : L R
Sampling rate                    : 32.0 KHz
Resolution                       : 16 bits
Stream size                      : 65.9 MiB (6%)
    ÜÜÜÜÜÜÜÜÜÜÜÜÜÜÜÜÜÜÜÜÜÜÜÜÜÜÜÜÜÜÜÜÜÜÜÜÜÜÜÜÜÜÜÜÜÜÜÜÜÜÜÜÜÜÜÜÜÜÜÜÜÜÜÜÜÜÜÜÜÜ

                          Û°°°°°°°°°°°°°°°°°°°°°°°°Û
                         ÛÛ          Plot          ÛÛ
                          Û°°°°°°°°°°°°°°°°°°°°°°°°Û

In his segment called "The Ugly Truth," chauvinistic 
morning show commentator Mike Alexander (Gerard Butler) 
makes his perpetually single producer (Katherine Heigl) 
the subject of a series of romantic tests in order to 
prove his theories on relationships. But will his 
experiments help her find love, or is she just a hopeless 
case? Cheryl Hines co-stars as Mike's unflappable co-anchor 
in this rom-com from the team behind Legally Blonde.

Starring: Gerard Butler, Katherine Heigl

Director: Robert Luketic
    ÜÜÜÜÜÜÜÜÜÜÜÜÜÜÜÜÜÜÜÜÜÜÜÜÜÜÜÜÜÜÜÜÜÜÜÜÜÜÜÜÜÜÜÜÜÜÜÜÜÜÜÜÜÜÜÜÜÜÜÜÜÜÜÜÜÜÜÜÜÜ

ScreenShots 
http://imgshack.info/images/u2eicp9mm5wuth8fnldn.png 
http://imgshack.info/images/068bsszpf6fzq50bqpc1.png 
http://imgshack.info/images/wmp05666yhs5c70ijd8.png 
http://imgshack.info/images/uckwyxc4l1xmhnsgt68.jpg 
http://torrentz.me.pn